{
date = "2013-05-07 17:01:52 +0000";
designer = "Shinji Pons";
designerURL = www.shinjipons.com;
familyName = "Modulo 42";
fontMaster = (
{
alignmentZones = (
"{128, 129}",
"{128, 129}",
"{128, 129}",
"{0, -2}",
"{0, -2}"
);
ascender = 128;
capHeight = 128;
customParameters = (
{
name = familyName;
value = "Modulo 42";
}
);
descender = 0;
guideLines = (
{
position = "{-25, 43}";
},
{
angle = 90;
position = "{93, 139}";
},
{
angle = 90;
position = "{51, 135}";
},
{
position = "{-22, 85}";
},
{
angle = 90;
position = "{50, 143}";
},
{
angle = 90;
position = "{94, 136}";
},
{
position = "{-22, 86}";
},
{
position = "{-24, 42}";
},
{
angle = 90;
position = "{136, -22}";
},
{
angle = 90;
position = "{8, -30}";
}
);
horizontalStems = (
42
);
id = "940E2F63-624A-4C3D-A909-721782B4CF41";
verticalStems = (
42
);
weightValue = 42;
widthValue = 128;
xHeight = 128;
}
);
glyphs = (
{
glyphname = A;
lastChange = "2013-06-29 06:39:41 +0100";
layers = (
{
guideLines = (
{
position = "{-9, 59}";
showMeasurement = 1;
},
{
angle = 90;
position = "{73, -10}";
showMeasurement = 1;
}
);
layerId = "940E2F63-624A-4C3D-A909-721782B4CF41";
name = Regular;
paths = (
{
closed = 1;
nodes = (
"50 86 LINE",
"94 86 LINE",
"94 128 LINE",
"50 128 LINE"
);
},
{
closed = 1;
nodes = (
"50 43 LINE",
"51 43 LINE",
"51 85 LINE",
"50 85 LINE"
);
},
{
closed = 1;
nodes = (
"50 0 LINE",
"94 0 LINE",
"94 42 LINE",
"50 42 LINE"
);
}
);
width = 144;
}
);
unicode = 0041;
},
{
glyphname = B;
lastChange = "2013-06-29 06:41:57 +0100";
layers = (
{
layerId = "940E2F63-624A-4C3D-A909-721782B4CF41";
name = Regular;
paths = (
{
closed = 1;
nodes = (
"50 86 LINE",
"94 86 LINE",
"94 128 LINE",
"50 128 LINE"
);
},
{
closed = 1;
nodes = (
"93 43 LINE",
"94 43 LINE",
"94 85 LINE",
"93 85 LINE"
);
},
{
closed = 1;
nodes = (
"93 0 LINE",
"94 0 LINE",
"94 42 LINE",
"93 42 LINE"
);
}
);
width = 144;
}
);
unicode = 0042;
},
{
glyphname = C;
lastChange = "2013-06-29 06:42:10 +0100";
layers = (
{
layerId = "940E2F63-624A-4C3D-A909-721782B4CF41";
name = Regular;
paths = (
{
closed = 1;
nodes = (
"50 86 LINE",
"94 86 LINE",
"94 128 LINE",
"50 128 LINE"
);
},
{
closed = 1;
nodes = (
"50 0 LINE",
"94 0 LINE",
"94 42 LINE",
"50 42 LINE"
);
}
);
width = 144;
}
);
unicode = 0043;
},
{
glyphname = D;
lastChange = "2013-06-29 06:42:31 +0100";
layers = (
{
layerId = "940E2F63-624A-4C3D-A909-721782B4CF41";
name = Regular;
paths = (
{
closed = 1;
nodes = (
"50 86 LINE",
"94 86 LINE",
"94 128 LINE",
"50 128 LINE"
);
},
{
closed = 1;
nodes = (
"50 0 LINE",
"94 0 LINE",
"94 42 LINE",
"50 42 LINE"
);
}
);
width = 144;
}
);
unicode = 0044;
},
{
glyphname = E;
lastChange = "2013-06-29 06:44:05 +0100";
layers = (
{
layerId = "940E2F63-624A-4C3D-A909-721782B4CF41";
name = Regular;
paths = (
{
closed = 1;
nodes = (
"51 86 LINE",
"94 86 LINE",
"94 128 LINE",
"51 128 LINE"
);
},
{
closed = 1;
nodes = (
"50 43 LINE",
"94 43 LINE",
"94 85 LINE",
"50 85 LINE"
);
},
{
closed = 1;
nodes = (
"50 0 LINE",
"94 0 LINE",
"94 42 LINE",
"50 42 LINE"
);
}
);
width = 144;
}
);
unicode = 0045;
},
{
glyphname = F;
lastChange = "2013-06-29 06:44:19 +0100";
layers = (
{
layerId = "940E2F63-624A-4C3D-A909-721782B4CF41";
name = Regular;
paths = (
{
closed = 1;
nodes = (
"50 86 LINE",
"94 86 LINE",
"94 128 LINE",
"50 128 LINE"
);
},
{
closed = 1;
nodes = (
"50 43 LINE",
"94 43 LINE",
"94 85 LINE",
"50 85 LINE"
);
}
);
width = 144;
}
);
unicode = 0046;
},
{
glyphname = H;
lastChange = "2013-06-29 06:44:32 +0100";
layers = (
{
layerId = "940E2F63-624A-4C3D-A909-721782B4CF41";
name = Regular;
paths = (
{
closed = 1;
nodes = (
"50 43 LINE",
"94 43 LINE",
"94 85 LINE",
"50 85 LINE"
);
}
);
width = 144;
}
);
unicode = 0048;
},
{
glyphname = I;
lastChange = "2013-06-29 06:44:45 +0100";
layers = (
{
layerId = "940E2F63-624A-4C3D-A909-721782B4CF41";
name = Regular;
paths = (
{
closed = 1;
nodes = (
"50 86 LINE",
"94 86 LINE",
"94 128 LINE",
"50 128 LINE"
);
},
{
closed = 1;
nodes = (
"50 0 LINE",
"94 0 LINE",
"94 42 LINE",
"50 42 LINE"
);
}
);
width = 144;
}
);
unicode = 0049;
},
{
glyphname = J;
lastChange = "2013-06-29 06:45:02 +0100";
layers = (
{
layerId = "940E2F63-624A-4C3D-A909-721782B4CF41";
name = Regular;
paths = (
{
closed = 1;
nodes = (
"93 86 LINE",
"94 86 LINE",
"94 128 LINE",
"93 128 LINE"
);
},
{
closed = 1;
nodes = (
"50 0 LINE",
"94 0 LINE",
"94 42 LINE",
"50 42 LINE"
);
}
);
width = 144;
}
);
unicode = 004A;
},
{
glyphname = K;
lastChange = "2013-06-29 06:45:44 +0100";
layers = (
{
layerId = "940E2F63-624A-4C3D-A909-721782B4CF41";
name = Regular;
paths = (
{
closed = 1;
nodes = (
"93 86 LINE",
"94 86 LINE",
"94 128 LINE",
"93 128 LINE"
);
},
{
closed = 1;
nodes = (
"50 43 LINE",
"94 43 LINE",
"94 85 LINE",
"50 85 LINE"
);
}
);
width = 144;
}
);
unicode = 004B;
},
{
glyphname = L;
lastChange = "2013-06-29 06:47:02 +0100";
layers = (
{
layerId = "940E2F63-624A-4C3D-A909-721782B4CF41";
name = Regular;
paths = (
{
closed = 1;
nodes = (
"50 0 LINE",
"94 0 LINE",
"94 42 LINE",
"50 42 LINE"
);
}
);
width = 144;
}
);
unicode = 004C;
},
{
glyphname = M;
lastChange = "2013-06-29 06:47:18 +0100";
layers = (
{
layerId = "940E2F63-624A-4C3D-A909-721782B4CF41";
name = Regular;
paths = (
{
closed = 1;
nodes = (
"50 86 LINE",
"94 86 LINE",
"94 128 LINE",
"50 128 LINE"
);
}
);
width = 144;
}
);
unicode = 004D;
},
{
glyphname = N;
lastChange = "2013-06-29 06:47:39 +0100";
layers = (
{
layerId = "940E2F63-624A-4C3D-A909-721782B4CF41";
name = Regular;
paths = (
{
closed = 1;
nodes = (
"50 86 LINE",
"93 86 LINE",
"93 128 LINE",
"50 128 LINE"
);
},
{
closed = 1;
nodes = (
"51 42 LINE",
"51 0 LINE",
"94 0 LINE",
"94 42 LINE"
);
}
);
width = 144;
}
);
unicode = 004E;
},
{
glyphname = O;
lastChange = "2013-06-29 06:48:05 +0100";
layers = (
{
layerId = "940E2F63-624A-4C3D-A909-721782B4CF41";
name = Regular;
paths = (
{
closed = 1;
nodes = (
"50 86 LINE",
"94 86 LINE",
"94 128 LINE",
"50 128 LINE"
);
},
{
closed = 1;
nodes = (
"50 0 LINE",
"94 0 LINE",
"94 42 LINE",
"50 42 LINE"
);
}
);
width = 144;
}
);
unicode = 004F;
},
{
glyphname = P;
lastChange = "2013-06-29 06:48:23 +0100";
layers = (
{
layerId = "940E2F63-624A-4C3D-A909-721782B4CF41";
name = Regular;
paths = (
{
closed = 1;
nodes = (
"50 86 LINE",
"94 86 LINE",
"94 128 LINE",
"50 128 LINE"
);
},
{
closed = 1;
nodes = (
"93 43 LINE",
"94 43 LINE",
"94 85 LINE",
"93 85 LINE"
);
}
);
width = 144;
}
);
unicode = 0050;
},
{
glyphname = Q;
lastChange = "2013-06-29 06:48:40 +0100";
layers = (
{
layerId = "940E2F63-624A-4C3D-A909-721782B4CF41";
name = Regular;
paths = (
{
closed = 1;
nodes = (
"50 86 LINE",
"94 86 LINE",
"94 128 LINE",
"50 128 LINE"
);
},
{
closed = 1;
nodes = (
"50 0 LINE",
"94 0 LINE",
"94 42 LINE",
"50 42 LINE"
);
}
);
width = 144;
}
);
unicode = 0051;
},
{
glyphname = R;
lastChange = "2013-06-29 06:48:53 +0100";
layers = (
{
layerId = "940E2F63-624A-4C3D-A909-721782B4CF41";
name = Regular;
paths = (
{
closed = 1;
nodes = (
"50 86 LINE",
"94 86 LINE",
"94 128 LINE",
"50 128 LINE"
);
},
{
closed = 1;
nodes = (
"93 43 LINE",
"94 43 LINE",
"94 85 LINE",
"93 85 LINE"
);
},
{
closed = 1;
nodes = (
"93 0 LINE",
"94 0 LINE",
"94 42 LINE",
"93 42 LINE"
);
}
);
width = 144;
}
);
unicode = 0052;
},
{
glyphname = S;
lastChange = "2013-06-29 06:49:03 +0100";
layers = (
{
layerId = "940E2F63-624A-4C3D-A909-721782B4CF41";
name = Regular;
paths = (
{
closed = 1;
nodes = (
"50 86 LINE",
"94 86 LINE",
"94 128 LINE",
"50 128 LINE"
);
},
{
closed = 1;
nodes = (
"50 43 LINE",
"94 43 LINE",
"94 85 LINE",
"50 85 LINE"
);
},
{
closed = 1;
nodes = (
"50 0 LINE",
"94 0 LINE",
"94 42 LINE",
"50 42 LINE"
);
}
);
width = 144;
}
);
unicode = 0053;
},
{
glyphname = T;
lastChange = "2013-06-29 06:49:14 +0100";
layers = (
{
layerId = "940E2F63-624A-4C3D-A909-721782B4CF41";
name = Regular;
paths = (
{
closed = 1;
nodes = (
"50 86 LINE",
"94 86 LINE",
"94 128 LINE",
"50 128 LINE"
);
}
);
width = 144;
}
);
unicode = 0054;
},
{
glyphname = U;
lastChange = "2013-06-29 06:49:27 +0100";
layers = (
{
layerId = "940E2F63-624A-4C3D-A909-721782B4CF41";
name = Regular;
paths = (
{
closed = 1;
nodes = (
"50 0 LINE",
"94 0 LINE",
"94 42 LINE",
"50 42 LINE"
);
}
);
width = 144;
}
);
unicode = 0055;
},
{
glyphname = V;
lastChange = "2013-06-29 06:49:56 +0100";
layers = (
{
layerId = "940E2F63-624A-4C3D-A909-721782B4CF41";
name = Regular;
paths = (
{
closed = 1;
nodes = (
"93 43 LINE",
"94 43 LINE",
"94 85 LINE",
"93 85 LINE"
);
},
{
closed = 1;
nodes = (
"50 0 LINE",
"51 0 LINE",
"51 42 LINE",
"50 42 LINE"
);
}
);
width = 144;
}
);
unicode = 0056;
},
{
glyphname = X;
lastChange = "2013-06-29 06:51:23 +0100";
layers = (
{
layerId = "940E2F63-624A-4C3D-A909-721782B4CF41";
name = Regular;
paths = (
{
closed = 1;
nodes = (
"50 86 LINE",
"94 86 LINE",
"94 128 LINE",
"50 128 LINE"
);
},
{
closed = 1;
nodes = (
"50 0 LINE",
"94 0 LINE",
"94 42 LINE",
"50 42 LINE"
);
}
);
width = 144;
}
);
unicode = 0058;
},
{
glyphname = Y;
lastChange = "2013-06-29 06:51:35 +0100";
layers = (
{
layerId = "940E2F63-624A-4C3D-A909-721782B4CF41";
name = Regular;
paths = (
{
closed = 1;
nodes = (
"50 0 LINE",
"94 0 LINE",
"94 42 LINE",
"50 42 LINE"
);
},
{
closed = 1;
nodes = (
"50 43 LINE",
"94 43 LINE",
"94 85 LINE",
"50 85 LINE"
);
}
);
width = 144;
}
);
unicode = 0059;
},
{
glyphname = one;
lastChange = "2013-06-29 06:58:33 +0100";
layers = (
{
layerId = "940E2F63-624A-4C3D-A909-721782B4CF41";
name = Regular;
paths = (
{
closed = 1;
nodes = (
"50 86 LINE",
"51 86 LINE",
"51 128 LINE",
"50 128 LINE"
);
},
{
closed = 1;
nodes = (
"50 0 LINE",
"94 0 LINE",
"94 42 LINE",
"50 42 LINE"
);
}
);
width = 144;
}
);
unicode = 0031;
},
{
glyphname = four;
lastChange = "2013-06-29 06:58:45 +0100";
layers = (
{
layerId = "940E2F63-624A-4C3D-A909-721782B4CF41";
name = Regular;
paths = (
{
closed = 1;
nodes = (
"50 43 LINE",
"94 43 LINE",
"94 85 LINE",
"50 85 LINE"
);
}
);
width = 144;
}
);
unicode = 0034;
},
{
glyphname = seven;
lastChange = "2013-06-29 06:58:56 +0100";
layers = (
{
layerId = "940E2F63-624A-4C3D-A909-721782B4CF41";
name = Regular;
paths = (
{
closed = 1;
nodes = (
"50 86 LINE",
"94 86 LINE",
"94 128 LINE",
"50 128 LINE"
);
},
{
closed = 1;
nodes = (
"93 43 LINE",
"94 43 LINE",
"94 85 LINE",
"93 85 LINE"
);
}
);
width = 144;
}
);
unicode = 0037;
},
{
glyphname = bullet;
lastChange = "2013-06-29 06:59:10 +0100";
layers = (
{
layerId = "940E2F63-624A-4C3D-A909-721782B4CF41";
name = Regular;
paths = (
{
closed = 1;
nodes = (
"50 128 LINE",
"50 86 LINE",
"94 86 LINE",
"94 128 LINE"
);
},
{
closed = 1;
nodes = (
"50 85 LINE",
"50 43 LINE",
"94 43 LINE",
"94 85 LINE"
);
},
{
closed = 1;
nodes = (
"50 42 LINE",
"50 0 LINE",
"94 0 LINE",
"94 42 LINE"
);
}
);
width = 144;
}
);
unicode = 2022;
},
{
glyphname = ellipsis;
lastChange = "2013-06-29 06:59:39 +0100";
layers = (
{
layerId = "940E2F63-624A-4C3D-A909-721782B4CF41";
name = Regular;
paths = (
{
closed = 1;
nodes = (
"50 128 LINE",
"50 86 LINE",
"94 86 LINE",
"94 128 LINE"
);
},
{
closed = 1;
nodes = (
"50 85 LINE",
"50 43 LINE",
"94 43 LINE",
"94 85 LINE"
);
}
);
width = 144;
}
);
unicode = 2026;
},
{
glyphname = question;
lastChange = "2013-06-29 06:59:54 +0100";
layers = (
{
layerId = "940E2F63-624A-4C3D-A909-721782B4CF41";
name = Regular;
paths = (
{
closed = 1;
nodes = (
"50 86 LINE",
"94 86 LINE",
"94 128 LINE",
"50 128 LINE"
);
},
{
closed = 1;
nodes = (
"93 43 LINE",
"94 43 LINE",
"94 85 LINE",
"93 85 LINE"
);
}
);
width = 144;
}
);
unicode = 003F;
},
{
glyphname = braceleft;
lastChange = "2013-06-29 07:00:16 +0100";
layers = (
{
layerId = "940E2F63-624A-4C3D-A909-721782B4CF41";
name = Regular;
paths = (
{
closed = 1;
nodes = (
"93 86 LINE",
"94 86 LINE",
"94 128 LINE",
"93 128 LINE"
);
},
{
closed = 1;
nodes = (
"50 43 LINE",
"51 43 LINE",
"51 85 LINE",
"50 85 LINE"
);
},
{
closed = 1;
nodes = (
"93 0 LINE",
"94 0 LINE",
"94 42 LINE",
"93 42 LINE"
);
}
);
width = 144;
}
);
unicode = 007B;
},
{
color = 0;
glyphname = euro;
lastChange = "2013-12-01 22:02:30 +0000";
layers = (
{
components = (
{
name = braceleft;
transform = "{1, 0, 0, 1, 0, 0}";
}
);
layerId = "940E2F63-624A-4C3D-A909-721782B4CF41";
name = Regular;
paths = (
{
closed = 1;
nodes = (
"93 43 LINE",
"94 43 LINE",
"94 85 LINE",
"93 85 LINE"
);
}
);
width = 144;
}
);
unicode = 20AC;
},
{
color = 0;
glyphname = sterling;
lastChange = "2013-12-01 22:03:31 +0000";
layers = (
{
layerId = "940E2F63-624A-4C3D-A909-721782B4CF41";
name = Regular;
paths = (
{
closed = 1;
nodes = (
"94 86 LINE",
"93 86 LINE",
"93 128 LINE",
"94 128 LINE"
);
},
{
closed = 1;
nodes = (
"51 43 LINE",
"50 43 LINE",
"50 85 LINE",
"51 85 LINE"
);
},
{
closed = 1;
nodes = (
"50 0 LINE",
"94 0 LINE",
"94 42 LINE",
"50 42 LINE"
);
}
);
width = 144;
}
);
unicode = 00A3;
},
{
glyphname = divide;
lastChange = "2013-11-07 20:13:03 +0000";
layers = (
{
layerId = "940E2F63-624A-4C3D-A909-721782B4CF41";
name = Regular;
paths = (
{
closed = 1;
nodes = (
"50 85 LINE",
"50 43 LINE",
"94 43 LINE",
"94 85 LINE"
);
}
);
width = 144;
}
);
unicode = 00F7;
},
{
color = 0;
glyphname = percent;
lastChange = "2013-12-01 22:15:34 +0000";
layers = (
{
layerId = "940E2F63-624A-4C3D-A909-721782B4CF41";
name = Regular;
paths = (
{
closed = 1;
nodes = (
"50 86 LINE",
"51 86 LINE",
"51 128 LINE",
"50 128 LINE"
);
},
{
closed = 1;
nodes = (
"50 43 LINE",
"94 43 LINE",
"94 85 LINE",
"50 85 LINE"
);
},
{
closed = 1;
nodes = (
"93 0 LINE",
"94 0 LINE",
"94 42 LINE",
"93 42 LINE"
);
}
);
width = 144;
}
);
unicode = 0025;
},
{
glyphname = plus;
lastChange = "2013-06-29 05:02:08 +0100";
layers = (
{
layerId = "940E2F63-624A-4C3D-A909-721782B4CF41";
name = Regular;
paths = (
{
closed = 1;
nodes = (
"50 43 LINE",
"94 43 LINE",
"94 85 LINE",
"50 85 LINE"
);
}
);
width = 144;
}
);
unicode = 002B;
},
{
glyphname = ampersand;
lastChange = "2013-06-29 05:02:16 +0100";
layers = (
{
layerId = "940E2F63-624A-4C3D-A909-721782B4CF41";
name = Regular;
paths = (
{
closed = 1;
nodes = (
"93 86 LINE",
"94 86 LINE",
"94 128 LINE",
"93 128 LINE"
);
},
{
closed = 1;
nodes = (
"50 43 LINE",
"94 43 LINE",
"94 85 LINE",
"50 85 LINE"
);
},
{
closed = 1;
nodes = (
"50 0 LINE",
"94 0 LINE",
"94 42 LINE",
"50 42 LINE"
);
}
);
width = 144;
}
);
unicode = 0026;
},
{
color = 0;
glyphname = asciicircum;
lastChange = "2013-12-01 22:16:18 +0000";
layers = (
{
layerId = "940E2F63-624A-4C3D-A909-721782B4CF41";
name = Regular;
paths = (
{
closed = 1;
nodes = (
"50 43 LINE",
"51 43 LINE",
"51 85 LINE",
"50 85 LINE"
);
},
{
closed = 1;
nodes = (
"93 43 LINE",
"94 43 LINE",
"94 85 LINE",
"93 85 LINE"
);
}
);
width = 144;
}
);
unicode = 005E;
},
{
glyphname = degree;
lastChange = "2013-06-29 05:02:42 +0100";
layers = (
{
layerId = "940E2F63-624A-4C3D-A909-721782B4CF41";
name = Regular;
paths = (
{
closed = 1;
nodes = (
"50 86 LINE",
"51 86 LINE",
"51 128 LINE",
"50 128 LINE"
);
},
{
closed = 1;
nodes = (
"50 43 LINE",
"51 43 LINE",
"51 85 LINE",
"50 85 LINE"
);
},
{
closed = 1;
nodes = (
"93 0 LINE",
"94 0 LINE",
"94 42 LINE",
"93 42 LINE"
);
}
);
width = 144;
}
);
unicode = 00B0;
},
